<?xml version="1.0" encoding="UTF-8" standalone="no"?>
<svg
   xmlns:dc="http://purl.org/dc/elements/1.1/"
   xmlns:cc="http://creativecommons.org/ns#"
   xmlns:rdf="http://www.w3.org/1999/02/22-rdf-syntax-ns#"
   xmlns:svg="http://www.w3.org/2000/svg"
   xmlns="http://www.w3.org/2000/svg"
   xmlns:sodipodi="http://sodipodi.sourceforge.net/DTD/sodipodi-0.dtd"
   xmlns:inkscape="http://www.inkscape.org/namespaces/inkscape"
   version="1.1"
   width="3060.6673407482303"
   height="527.8058645096057"
   id="svg17"
   sodipodi:docname="logo_r_equity_research_14.svg"
   inkscape:version="0.92.3 (2405546, 2018-03-11)">
  <metadata
     id="metadata23">
    <rdf:RDF>
      <cc:Work
         rdf:about="">
        <dc:format>image/svg+xml</dc:format>
        <dc:type
           rdf:resource="http://purl.org/dc/dcmitype/StillImage" />
        <dc:title></dc:title>
      </cc:Work>
    </rdf:RDF>
  </metadata>
  <defs
     id="defs21" />
  <sodipodi:namedview
     pagecolor="#ffffff"
     bordercolor="#666666"
     borderopacity="1"
     objecttolerance="10"
     gridtolerance="10"
     guidetolerance="10"
     inkscape:pageopacity="0"
     inkscape:pageshadow="2"
     inkscape:window-width="3000"
     inkscape:window-height="1955"
     id="namedview19"
     showgrid="false"
     inkscape:zoom="0.52397665"
     inkscape:cx="1585.3304"
     inkscape:cy="321.56303"
     inkscape:window-x="-13"
     inkscape:window-y="-13"
     inkscape:window-maximized="1"
     inkscape:current-layer="g15" />
  <g
     transform="scale(3.033367037411527) translate(10, 10)"
     id="g15">
    <defs
       id="SvgjsDefs20086" />
    <g
       id="SvgjsG20087"
       featureKey="root"
       fill="#000" />
    <g
       id="SvgjsG20088"
       featureKey="container1"
       fill="#000"
       transform="matrix(2.738345295086113,0,0,2.738345295086113,9.000020148870309,0.011429046420113281)">
      <title
         id="title4">Untitled-1</title>
      <path
         d="M23.11,55.78L1.69,43.41A3.39,3.39,0,0,1,0,40.48V15.75a3.39,3.39,0,0,1,1.69-2.94L23.11,0.45a3.39,3.39,0,0,1,3.39,0L47.91,12.82a3.39,3.39,0,0,1,1.69,2.94V40.48a3.39,3.39,0,0,1-1.69,2.94L26.5,55.78A3.39,3.39,0,0,1,23.11,55.78Z"
         id="path6" />
    </g>
    <g
       id="SvgjsG20089"
       featureKey="text4"
       fill="#ffffff"
       transform="matrix(6.596226771168984,0,0,6.596226771168984,40.08452441473859,-34.96226771168985)">
      <path
         d="M11.8 24 l-2.36 0 l-3.3 -4.88 l-0.24 0 l-2.5 0 l0 4.88 l-2.2 0 l0 -14 l4.7 0 c3.14 0 5.06 1.92 5.06 4.62 c0 1.96 -1.02 3.46 -2.78 4.12 z M3.4 12.04 l0 5.16 l2.4 0 c1.78 0 2.96 -0.84 2.96 -2.58 s-1.18 -2.58 -2.96 -2.58 l-2.4 0 z"
         id="path9" />
    </g>
    <g
       id="SvgjsG20090"
       featureKey="text1"
       transform="matrix(5.6355323,0,0,5.8359764,188.24035,-34.359758)"
       style="fill:#000000">
      <path
         d="m 5.16,13.92 c 1.72,0 3.48,1.28 3.48,3.62 v 1.26 c 0,0.38 -0.26,0.62 -0.66,0.62 H 1.92 v 1.18 c 0,1.62 0.92,2.54 2.58,2.54 h 0.66 c 1.4,0 1.78,-0.58 2.4,-1.32 0.14,-0.16 0.22,-0.2 0.42,-0.06 l 0.26,0.18 C 8.44,22.08 8.42,22.2 8.3,22.36 7.58,23.24 6.86,24.1 5.16,24.1 H 4.5 c -2.1,0 -3.6,-1.32 -3.6,-3.56 v -2.98 c 0,-2.38 1.5,-3.64 3.6,-3.64 z m 2.46,4.6 v -0.9 c 0,-1.86 -1.06,-2.76 -2.46,-2.76 H 4.5 c -1.66,0 -2.58,0.9 -2.58,2.74 v 0.92 z M 18.912,14 c 0.2,0 0.3,0.1 0.3,0.3 v 13.4 c 0,0.2 -0.1,0.3 -0.3,0.3 h -0.38 c -0.2,0 -0.3,-0.1 -0.3,-0.3 v -5.22 c -0.42,1 -1.24,1.62 -2.72,1.62 h -0.72 c -2.08,0 -3.54,-1.34 -3.54,-3.68 v -2.86 c 0,-2.38 1.46,-3.64 3.54,-3.64 h 0.72 c 1.48,0 2.3,0.5 2.72,1.5 V 14.3 c 0,-0.2 0.1,-0.3 0.3,-0.3 z m -3.26,9.14 c 1.66,0 2.58,-0.92 2.58,-2.64 v -2.88 c 0,-1.86 -0.92,-2.74 -2.58,-2.74 h -0.84 c -1.66,0 -2.58,0.88 -2.58,2.74 v 2.88 c 0,1.72 0.92,2.64 2.58,2.64 z m 9.952,0.94 c -2.36,0 -3.18,-1.22 -3.18,-3.54 V 14.3 c 0,-0.2 0.1,-0.3 0.3,-0.3 h 0.38 c 0.2,0 0.3,0.1 0.3,0.3 v 6.18 c 0,1.74 0.4,2.64 2.2,2.64 h 0.32 c 1.66,0 2.62,-1.02 2.94,-1.56 V 14.3 c 0,-0.2 0.1,-0.3 0.3,-0.3 h 0.38 c 0.2,0 0.3,0.1 0.3,0.3 v 9.4 c 0,0.2 -0.1,0.3 -0.3,0.3 h -0.38 c -0.2,0 -0.3,-0.1 -0.3,-0.3 v -1.26 c -0.78,1.12 -1.9,1.64 -3.1,1.64 z M 33.296,10.3 c 0,-0.2 0.1,-0.3 0.3,-0.3 h 0.32 c 0.2,0 0.3,0.1 0.3,0.3 v 0.44 c 0,0.2 -0.1,0.3 -0.3,0.3 h -0.32 c -0.2,0 -0.3,-0.1 -0.3,-0.3 z m -0.04,4 c 0,-0.2 0.1,-0.3 0.3,-0.3 h 0.38 c 0.2,0 0.3,0.1 0.3,0.3 v 9.4 c 0,0.2 -0.1,0.3 -0.3,0.3 h -0.38 c -0.2,0 -0.3,-0.1 -0.3,-0.3 z m 7.952,0.64 h -1.7 v 5.92 c 0,1.58 0.38,2.22 1.72,2.26 0.18,-0.02 0.26,0.12 0.26,0.3 l -0.02,0.34 c 0,0.16 -0.1,0.28 -0.28,0.28 -1.96,-0.04 -2.66,-1.06 -2.66,-3.14 v -5.96 h -1.08 c -0.2,0 -0.3,-0.1 -0.3,-0.3 v -0.32 c 0,-0.22 0.1,-0.32 0.3,-0.32 h 1.08 v -1.16 c 0,-0.2 0.1,-0.3 0.3,-0.3 h 0.38 c 0.2,0 0.3,0.1 0.3,0.3 V 14 h 1.68 c 0.22,0 0.32,0.1 0.32,0.3 v 0.34 c 0,0.2 -0.1,0.3 -0.3,0.3 z M 51.84,14 c 0.22,0 0.24,0.16 0.18,0.32 L 46.76,27.66 C 46.64,27.94 46.48,28 46.34,28 h -0.38 c -0.24,0 -0.28,-0.16 -0.2,-0.36 l 1.58,-3.98 -3.7,-9.34 C 43.58,14.16 43.6,14 43.82,14 h 0.48 c 0.2,0 0.24,0.08 0.34,0.32 l 3.18,8.06 3.2,-8.06 C 51.1,14.08 51.14,14 51.32,14 Z m 2.812,10 c -0.2,0 -0.3,-0.1 -0.3,-0.3 v -0.36 c 0,-0.2 0.1,-0.3 0.3,-0.3 h 9.08 c 0.18,0 0.3,0.1 0.3,0.3 v 0.36 c 0,0.2 -0.12,0.3 -0.3,0.3 z m 17.952,-9.12 c -0.08,0.18 -0.22,0.2 -0.38,0.14 -0.28,-0.1 -0.6,-0.16 -1.02,-0.16 h -0.24 c -1.66,0 -2.62,1.04 -2.94,1.58 v 7.26 c 0,0.2 -0.1,0.3 -0.3,0.3 h -0.38 c -0.2,0 -0.3,-0.1 -0.3,-0.3 v -9.4 c 0,-0.2 0.1,-0.3 0.3,-0.3 h 0.38 c 0.2,0 0.3,0.1 0.3,0.3 v 1.26 c 0.78,-1.14 1.92,-1.64 3.26,-1.64 0.44,0 0.9,0.06 1.3,0.16 0.18,0.08 0.24,0.2 0.18,0.38 z m 6.552,-0.96 c 1.72,0 3.48,1.28 3.48,3.62 v 1.26 c 0,0.38 -0.26,0.62 -0.66,0.62 h -6.06 v 1.18 c 0,1.62 0.92,2.54 2.58,2.54 h 0.66 c 1.4,0 1.78,-0.58 2.4,-1.32 0.14,-0.16 0.22,-0.2 0.42,-0.06 l 0.26,0.18 c 0.2,0.14 0.18,0.26 0.06,0.42 -0.72,0.88 -1.44,1.74 -3.14,1.74 h -0.66 c -2.1,0 -3.6,-1.32 -3.6,-3.56 v -2.98 c 0,-2.38 1.5,-3.64 3.6,-3.64 z m 2.46,4.6 v -0.9 c 0,-1.86 -1.06,-2.76 -2.46,-2.76 h -0.66 c -1.66,0 -2.58,0.9 -2.58,2.74 v 0.92 z m 7.312,-0.04 c 2.06,0.26 3.76,0.5 3.76,2.74 0,2.08 -1.58,2.88 -3.4,2.88 h -0.8 c -1.84,0 -3.02,-0.9 -3.32,-2.48 -0.04,-0.18 0.06,-0.3 0.26,-0.3 h 0.5 c 0.16,0 0.26,0.1 0.28,0.28 0.26,1.08 0.96,1.54 2.28,1.54 h 0.8 c 1.36,0 2.42,-0.42 2.42,-1.92 0,-1.5 -1.3,-1.66 -2.78,-1.84 -2.16,-0.24 -3.6,-0.6 -3.6,-2.78 0,-1.9 1.28,-2.66 3.26,-2.66 h 0.58 c 1.86,0 3.12,0.84 3.2,2.66 0,0.2 -0.06,0.32 -0.28,0.32 h -0.44 c -0.18,0 -0.3,-0.12 -0.3,-0.32 -0.1,-1.2 -0.84,-1.76 -2.22,-1.76 h -0.5 c -1.44,0 -2.32,0.42 -2.32,1.78 0,1.44 1.04,1.68 2.62,1.86 z M 99.46,13.92 c 1.72,0 3.48,1.28 3.48,3.62 v 1.26 c 0,0.38 -0.26,0.62 -0.66,0.62 h -6.06 v 1.18 c 0,1.62 0.92,2.54 2.58,2.54 h 0.66 c 1.4,0 1.78,-0.58 2.4,-1.32 0.14,-0.16 0.22,-0.2 0.42,-0.06 l 0.26,0.18 c 0.2,0.14 0.18,0.26 0.06,0.42 -0.72,0.88 -1.44,1.74 -3.14,1.74 H 98.8 c -2.1,0 -3.6,-1.32 -3.6,-3.56 v -2.98 c 0,-2.38 1.5,-3.64 3.6,-3.64 z m 2.46,4.6 v -0.9 c 0,-1.86 -1.06,-2.76 -2.46,-2.76 H 98.8 c -1.66,0 -2.58,0.9 -2.58,2.74 v 0.92 z m 11.392,5.3 c 0.02,0.08 0.04,0.18 -0.06,0.18 h -0.64 c -0.22,0 -0.32,-0.2 -0.32,-0.48 v -1.2 c -0.62,1.04 -1.56,1.78 -3.02,1.78 h -0.92 c -1.8,0 -2.9,-1 -2.9,-2.98 0,-2 1.14,-2.88 2.86,-2.88 h 3.98 v -0.62 c 0,-2.14 -0.52,-2.76 -2.44,-2.76 h -0.38 c -1.06,0 -1.78,0.18 -2.48,0.54 -0.18,0.1 -0.36,0.14 -0.42,-0.02 l -0.22,-0.42 c -0.06,-0.12 -0.04,-0.22 0.16,-0.34 0.8,-0.52 1.86,-0.7 2.96,-0.7 h 0.38 c 2.48,0 3.42,1.14 3.42,3.68 v 5.92 c 0,0.1 0.02,0.22 0.04,0.3 z m -4.12,-0.68 c 1.62,0 2.68,-0.9 3.1,-2.22 v -1.78 h -3.94 c -1.24,0 -1.92,0.48 -1.92,1.98 0,1.5 0.68,2.02 1.92,2.02 z m 12.812,-8.26 c -0.08,0.18 -0.22,0.2 -0.38,0.14 -0.28,-0.1 -0.6,-0.16 -1.02,-0.16 h -0.24 c -1.66,0 -2.62,1.04 -2.94,1.58 v 7.26 c 0,0.2 -0.1,0.3 -0.3,0.3 h -0.38 c -0.2,0 -0.3,-0.1 -0.3,-0.3 v -9.4 c 0,-0.2 0.1,-0.3 0.3,-0.3 h 0.38 c 0.2,0 0.3,0.1 0.3,0.3 v 1.26 c 0.78,-1.14 1.92,-1.64 3.26,-1.64 0.44,0 0.9,0.06 1.3,0.16 0.18,0.08 0.24,0.2 0.18,0.38 z m 9.192,2.12 c -0.18,0 -0.26,-0.1 -0.32,-0.26 -0.22,-1.24 -1.1,-1.86 -2.3,-1.86 h -0.68 c -1.66,0 -2.58,0.9 -2.58,2.72 v 3 c 0,1.62 0.92,2.54 2.58,2.54 h 0.66 c 1.4,0 1.82,-0.56 2.46,-1.32 0.14,-0.16 0.22,-0.2 0.4,-0.08 l 0.28,0.22 c 0.18,0.12 0.18,0.26 0.06,0.42 -0.72,0.88 -1.36,1.72 -3.2,1.72 h -0.66 c -2.1,0 -3.6,-1.32 -3.6,-3.56 v -2.98 c 0,-2.36 1.5,-3.62 3.6,-3.62 h 0.68 c 1.72,0 3,1.02 3.32,2.76 0.04,0.18 -0.06,0.3 -0.24,0.3 z m 7.772,-3.08 c 2.38,0 3.18,1.2 3.18,3.54 v 6.24 c 0,0.2 -0.1,0.3 -0.3,0.3 h -0.38 c -0.2,0 -0.3,-0.1 -0.3,-0.3 v -6.18 c 0,-1.74 -0.4,-2.66 -2.18,-2.66 h -0.34 c -1.66,0 -2.62,1.04 -2.94,1.58 v 7.26 c 0,0.2 -0.1,0.3 -0.3,0.3 h -0.38 c -0.2,0 -0.3,-0.1 -0.3,-0.3 V 10.3 c 0,-0.2 0.1,-0.3 0.3,-0.3 h 0.38 c 0.2,0 0.3,0.1 0.3,0.3 v 5.26 c 0.78,-1.12 1.9,-1.64 3.1,-1.64 z"
         id="path12"
         inkscape:connector-curvature="0" />
    </g>
  </g>
</svg>
